solid 
 facet normal -0.000000e+00  0.000000e+00  1.000000e+00
   outer loop
     vertex -4.381500e+02  1.397000e+02  1.714500e+02
     vertex  4.381500e+02 -1.397000e+02  1.714500e+02
     vertex  4.381500e+02  1.397000e+02  1.714500e+02
   endloop
 endfacet
 facet normal  0.000000e+00  0.000000e+00  1.000000e+00
   outer loop
     vertex -4.381500e+02  1.397000e+02  1.714500e+02
     vertex -4.381500e+02 -1.397000e+02  1.714500e+02
     vertex  4.381500e+02 -1.397000e+02  1.714500e+02
   endloop
 endfacet
 facet normal  0.000000e+00 -1.000000e+00  0.000000e+00
   outer loop
     vertex  4.381500e+02 -1.397000e+02 -1.714500e+02
     vertex -4.381500e+02 -1.397000e+02  1.714500e+02
     vertex -4.381500e+02 -1.397000e+02 -1.714500e+02
   endloop
 endfacet
 facet normal -0.000000e+00 -1.000000e+00 -0.000000e+00
   outer loop
     vertex  4.381500e+02 -1.397000e+02  1.714500e+02
     vertex -4.381500e+02 -1.397000e+02  1.714500e+02
     vertex  4.381500e+02 -1.397000e+02 -1.714500e+02
   endloop
 endfacet
 facet normal  0.000000e+00  0.000000e+00 -1.000000e+00
   outer loop
     vertex  4.381500e+02 -1.397000e+02 -1.714500e+02
     vertex -4.381500e+02 -1.397000e+02 -1.714500e+02
     vertex -4.381500e+02  1.397000e+02 -1.714500e+02
   endloop
 endfacet
 facet normal -0.000000e+00 -0.000000e+00 -1.000000e+00
   outer loop
     vertex  4.381500e+02  1.397000e+02 -1.714500e+02
     vertex  4.381500e+02 -1.397000e+02 -1.714500e+02
     vertex -4.381500e+02  1.397000e+02 -1.714500e+02
   endloop
 endfacet
 facet normal  0.000000e+00  1.000000e+00 -0.000000e+00
   outer loop
     vertex  4.381500e+02  1.397000e+02 -1.714500e+02
     vertex -4.381500e+02  1.397000e+02  1.714500e+02
     vertex  4.381500e+02  1.397000e+02  1.714500e+02
   endloop
 endfacet
 facet normal  0.000000e+00  1.000000e+00  0.000000e+00
   outer loop
     vertex  4.381500e+02  1.397000e+02 -1.714500e+02
     vertex -4.381500e+02  1.397000e+02 -1.714500e+02
     vertex -4.381500e+02  1.397000e+02  1.714500e+02
   endloop
 endfacet
 facet normal  1.000000e+00  0.000000e+00  0.000000e+00
   outer loop
     vertex  4.381500e+02 -1.397000e+02 -1.714500e+02
     vertex  4.381500e+02  1.397000e+02  1.714500e+02
     vertex  4.381500e+02 -1.397000e+02  1.714500e+02
   endloop
 endfacet
 facet normal  1.000000e+00  0.000000e+00 -0.000000e+00
   outer loop
     vertex  4.381500e+02  1.397000e+02 -1.714500e+02
     vertex  4.381500e+02  1.397000e+02  1.714500e+02
     vertex  4.381500e+02 -1.397000e+02 -1.714500e+02
   endloop
 endfacet
 facet normal -1.000000e+00  0.000000e+00  0.000000e+00
   outer loop
     vertex -4.381500e+02 -1.397000e+02 -1.714500e+02
     vertex -4.381500e+02 -1.397000e+02  1.714500e+02
     vertex -4.381500e+02  1.397000e+02  1.714500e+02
   endloop
 endfacet
 facet normal -1.000000e+00  0.000000e+00  0.000000e+00
   outer loop
     vertex -4.381500e+02  1.397000e+02 -1.714500e+02
     vertex -4.381500e+02 -1.397000e+02 -1.714500e+02
     vertex -4.381500e+02  1.397000e+02  1.714500e+02
   endloop
 endfacet
endsolid
